<svg xmlns="http://www.w3.org/2000/svg" id="Layer_1" viewBox="0 0 800 800"><defs><clipPath id="clippath"><ellipse cx="398.1" cy="354.5" rx="205.6" ry="199.8" style="fill:none"/></clipPath><style>.st7{fill:#3463c1}</style></defs><rect width="802.4" height="800" rx="30.4" ry="30.4" style="fill:#f4ebd4"/><path d="M620 530.5c-.4.7-1 1.2-1.7 1.4-29.9 56.6-178.4 194.5-218.9 194.5v-.6c-40.5 0-189-137.8-218.9-194.5-.7-.2-1.3-.7-1.7-1.4-68.1-115.4-49.2-232.2-50.5-361.8 0-2.2.7-5.7-.6-7.7-.7-1-.7-2.3 0-3.3.5-.7 1-1.2 1.6-1.9.4-.4 1.2-.8 1.6-1 127-9.5 171.2-80.1 269.2-80.1s140.8 71.3 267.8 80.7c.4.2 1.2.6 1.6 1 1.5 1.6 2 3.9 1.2 5.9-.8 2.1-.2 5.1-.3 7.1-1.4 129.5 17.5 246.4-50.5 361.8Z" style="fill:#a59771"/><g style="clip-path:url(#clippath)"><ellipse cx="398.1" cy="352.8" rx="205.6" ry="199.8" style="fill:#f2e5bb"/><path d="M203.9 359.6h98.2v268.6h-98.2z" class="st7"/><path d="M300.6 299h98.2v329.2h-98.2z" class="st7"/><path d="M397.3 208.8h98.2v419.5h-98.2z" class="st7"/><path d="M494 280.5h98.2v347.8H494z" class="st7"/></g><path d="M580.4 526.7c21.9 31.2 49.5 60.7 73.6 89.6 13.3 16-2.8 35.2-14.1 47-15.5 16.1-43.7 40.4-64.4 19.2l-93-111.1c-13.4.6-25.7 6.9-39 9.4-165.3 30.4-305.1-113.2-267.8-277.9 36.8-162.6 226.6-229.8 360.8-132.5 110.8 80.3 124.6 238.9 33.4 339.6-.2 1 9 14.6 10.6 16.9Zm-204.9-363c-132.3 11.7-205.9 165.4-145.2 280.8 75 142.7 296.5 126.4 350-25.4 48.9-138.7-62.4-268-204.8-255.4" style="fill:#0e325d"/><path d="M301 392c-7.4-7.6-19.5-7.6-26.9 0s-7.4 19.8 0 27.4l88.7 90.3c7.4 7.6 19.5 7.6 26.9 0l164.8-167.6c7.4-7.6 7.4-19.8 0-27.3-7.4-7.6-19.5-7.6-26.9 0L376.3 468.7 301 392.1Z" style="fill-rule:evenodd;fill:#f2e5bb"/></svg>