<?xml version="1.0" encoding="UTF-8"?>
<svg id="Layer_1" xmlns="http://www.w3.org/2000/svg" xmlns:xlink="http://www.w3.org/1999/xlink" version="1.1" viewBox="0 0 800 800">
  <!-- Generator: Adobe Illustrator 30.0.0, SVG Export Plug-In . SVG Version: 2.1.1 Build 123)  -->
  <defs>
    <style>
      .st0 {
        fill: none;
      }

      .st1, .st2 {
        fill-rule: evenodd;
      }

      .st1, .st3 {
        fill: #f2e5bb;
      }

      .st2 {
        display: none;
        fill: #00f42e;
      }

      .st4 {
        fill: #0e325d;
      }

      .st5 {
        fill: #3463c1;
      }

      .st6 {
        clip-path: url(#clippath);
      }
    </style>
    <clipPath id="clippath">
      <ellipse class="st0" cx="398.2" cy="358.6" rx="187.4" ry="182.1"/>
    </clipPath>
  </defs>
  <g class="st6">
    <g>
      <ellipse class="st3" cx="398.2" cy="357" rx="187.4" ry="182.1"/>
      <g>
        <rect class="st5" x="221.2" y="363.2" width="89.5" height="244.8"/>
        <rect class="st5" x="309.3" y="308" width="89.5" height="300"/>
        <rect class="st5" x="397.5" y="225.8" width="89.5" height="382.3"/>
        <rect class="st5" x="485.6" y="291.1" width="89.5" height="317"/>
      </g>
    </g>
  </g>
  <path class="st4" d="M564.4,515.5c20,28.4,45.1,55.3,67.1,81.7,12.1,14.6-2.6,32.1-12.9,42.8-14.1,14.7-39.8,36.8-58.7,17.5l-84.8-101.3c-12.2.5-23.4,6.3-35.5,8.6-150.7,27.7-278.1-103.2-244.1-253.3,33.5-148.2,206.5-209.4,328.8-120.8,101,73.2,113.6,217.7,30.4,309.5-.2.9,8.2,13.3,9.7,15.4v-.2h0ZM377.6,184.7c-120.6,10.7-187.7,150.7-132.3,255.9,68.4,130.1,270.2,115.2,319-23.1,44.6-126.4-56.9-244.3-186.7-232.8h0Z"/>
  <path class="st2" d="M309.7,392.7c-6.7-6.9-17.8-6.9-24.5,0s-6.7,18,0,25l80.8,82.3c6.7,6.9,17.8,6.9,24.5,0l150.2-152.7c6.7-6.9,6.7-18,0-24.9s-17.8-6.9-24.5,0l-137.9,140.3-68.6-69.8h0v-.2Z"/>
  <path class="st1" d="M309.7,392.7c-6.7-6.9-17.8-6.9-24.5,0s-6.7,18,0,25l80.8,82.3c6.7,6.9,17.8,6.9,24.5,0l150.2-152.7c6.7-6.9,6.7-18,0-24.9s-17.8-6.9-24.5,0l-137.9,140.3-68.6-69.8h0v-.2Z"/>
</svg>