<?xml version="1.0" encoding="UTF-8"?>
<svg id="Layer_1" xmlns="http://www.w3.org/2000/svg" version="1.1" viewBox="0 0 800 800">
  <!-- Generator: Adobe Illustrator 30.0.0, SVG Export Plug-In . SVG Version: 2.1.1 Build 123)  -->
  <defs>
    <style>
      .st0 {
        fill: #b5a271;
      }

      .st1 {
        fill: #473e28;
      }
    </style>
  </defs>
  <path class="st1" d="M600.7,516.3c-22.1,48.9-163.5,181.1-201.4,181.1v-.5c-37.9,0-179.4-132.2-201.4-181.1,1.5-3.1,68.8-10.5,97.7-27,21.8-12.4,53.3-45.1,69.3-65.1,0-.2.2-.3.4-.5,17.3-21.8,50.4-21.6,67.8,0,.3.3.5.5.6.8,15.9,20.1,47.5,52.7,69.3,65.2,28.9,16.5,96.3,23.9,97.7,27h0Z"/>
  <path class="st0" d="M600.4,519c-.4.6-.9,1.1-1.5,1.3-27.3,51.6-162.6,177.3-199.5,177.3v-.5c-36.9,0-172.3-125.6-199.5-177.3-.6-.2-1.2-.6-1.5-1.3-62.1-105.2-44.8-211.6-46-329.7,0-2,.6-5.2-.5-7-.6-.9-.6-2.1,0-3,.5-.6.9-1.1,1.5-1.7.4-.4,1.1-.7,1.5-.9,115.7-8.7,156-73,245.3-73s128.3,65,244.1,73.5c.4.2,1.1.5,1.5.9h0c1.4,1.5,1.8,3.6,1.1,5.4-.7,1.9-.2,4.6-.3,6.5-1.3,118,15.9,224.6-46,329.7h0l-.2-.2Z"/>
</svg>