<svg xmlns="http://www.w3.org/2000/svg" viewBox="0 0 133 145"><path d="M116 76h8v-8l-8.1-.4-.9-6.6h-9l-.4 6.1-4.5 1v8h3.9c2.5 11.6-3.4 23.5 14 21-12.8 29.7-36 50-70.2 45.7C27.3 140.1 8.7 120 4.3 99.3-9.5 34.7 97.8-37.8 124.5 29c5.2 12.9 6.7 46.1-1.5 57.5-7.5 10.4-7.9-4.8-7-10.5m-97-5.5c1 8.2-.7 18.1 0 26.5h9c.8-.8-2-20.7 4.5-22.1 5.4 0 2.9 14.1 3.5 17.5 1.1 6 8.9 4.6 13.3 4.4l1.6-4.9c5.8 6.7 15.3 6.4 22.8 2.8l.2-7.8c-5.2 1.5-12.5 6.4-15-1 17.8 4.1 25.4-20.5 5.5-19S48 79.1 49.9 89.4c-.2 1.3-4.7.7-4.9-1.1.9-13.2.1-27.6-16.7-18.4-1.1-3.9-6.9-1.3-10.5-2-.4 1.1.9 2.1 1 2.5Zm80.9-2.4c-8.5-3.5-27-1.4-21.3 11.8 2 4.7 10.3 5.4 11.5 10-5.4.9-9.9-1.8-15-3v7.9c21.1 8.8 39.1-7.4 13-19.4 1.9-4 11.3 1.2 12 .5V68Z"/><path d="M61.1 78.5c1.5-8 11.9-4.3 5.9-.8-.7.5-6.2 2.5-5.9.9Z"/></svg>