<?xml version="1.0" encoding="UTF-8"?>
<svg id="Layer_1" xmlns="http://www.w3.org/2000/svg" version="1.1" viewBox="0 0 32 32">
  <defs>
    <style>
      .st0 {
        isolation: isolate;
      }

      .st1 {
        fill: #fff;
      }
    </style>
  </defs>
  <path d="M8,29.3c-.7,0-1.4-.3-1.9-.8-.5-.5-.8-1.1-.8-1.9V5.3c0-.7.3-1.4.8-1.9.5-.5,1.2-.8,1.9-.8h12l6.7,6.7v17.3c0,.7-.3,1.4-.8,1.9-.5.5-1.1.8-1.9.8H8ZM19.7,4.3v4c0,.4.1.7.4,1,.3.3.6.4.9.4h4l-5.3-5.3Z"/>
  <g class="st0">
    <path class="st1" d="M14.8,16.9c.9.3,2.5-.2,3.1.6.5.6-.3,1-.9,1.1-.6.2-1.6-.2-1.9.5-.2,1.4-1.1,2.1-1.9,3.2,0,0,0,0,.2,0,1.8-.4,4.1.1,5.9,0,.9,0,2.6-.8,2.9.6-1.1,4-7.2,0-10.8,1.4-.2,0-.4.1-.6.2-.4,0-.8-.1-1-.3-1.1-1.1,2.5-2.8,2.5-4.8,0-.9-1.2-.7-1.8-.9-1.2-.4-.9-1.4.2-1.6,0,0,.7,0,.7-.3,0-.1,0-.3,0-.5-1.9-5.3,6.8-7.6,9.4-3.4,1.3,1.9-.5,3.5-2.2,1.8-.5-.6-.5-.8-1.1-1.5-2.3-1.8-4.5,1.5-2.9,3.6h.1Z"/>
  </g>
</svg>