<svg xmlns="http://www.w3.org/2000/svg" xmlns:xlink="http://www.w3.org/1999/xlink" viewBox="0 0 177.92 220">
  <defs>
    <linearGradient id="a" x1="450.85" x2="412.38" y1="131.98" y2="275.56" gradientTransform="translate(29.797 -5.4522)scale(.2489)" gradientUnits="userSpaceOnUse">
      <stop offset="0" stop-color="#802528"/>
      <stop offset=".3064" stop-color="#aa2522"/>
      <stop offset=".5908" stop-color="#c9241e"/>
      <stop offset=".8317" stop-color="#db241b"/>
      <stop offset="1" stop-color="#e2231a"/>
    </linearGradient>
    <linearGradient id="d" x1="85.648" x2="239.81" y1="431.83" y2="445.31" gradientTransform="translate(29.797 -5.4522)scale(.2489)" gradientUnits="userSpaceOnUse">
      <stop offset="0" stop-color="#8b2332"/>
      <stop offset=".611" stop-color="#c32323"/>
      <stop offset="1" stop-color="#e2231a"/>
    </linearGradient>
    <linearGradient id="e" x1="456.17" x2="383.02" y1="322.88" y2="435.53" gradientTransform="translate(29.797 -5.4522)scale(.2489)" gradientUnits="userSpaceOnUse">
      <stop offset="0" stop-color="#8b2332"/>
      <stop offset=".0684" stop-color="#95232f"/>
      <stop offset=".3291" stop-color="#b72326"/>
      <stop offset=".5779" stop-color="#cf2320"/>
      <stop offset=".8076" stop-color="#dd231c"/>
      <stop offset="1" stop-color="#e2231a"/>
    </linearGradient>
    <radialGradient id="b" cx="487.75" cy="95.889" r="97.546" gradientTransform="translate(29.797 -5.4522)scale(.2489)" gradientUnits="userSpaceOnUse">
      <stop offset="0" stop-color="#ff6c36"/>
      <stop offset=".364" stop-color="#f6552d"/>
      <stop offset="1" stop-color="#e2231a"/>
    </radialGradient>
    <radialGradient id="c" cx="233.68" cy="359.73" r="142.26" gradientTransform="translate(29.793 -5.5276)scale(.249)" gradientUnits="userSpaceOnUse">
      <stop offset="0" stop-color="#ff6c36"/>
      <stop offset="1" stop-color="#e2231a"/>
    </radialGradient>
  </defs>
  <path fill="url(#a)" d="M101.48 70.137c6.1131-5.2965 10.889-13.036 14.43-20.185 1.3966-2.8195 2.8043-5.7174 4.1936-8.6981 3.6911-7.9218 7.6841-16.001 14.254-21.514 6.3065-5.2913 12.81-7.0241 20.126-8.2394 9.1225-1.5153 16.157-2.42 23.439-11.499 0 0-.39052 10.17-7.4168 16.788-6.9243 6.521-15.218 6.2448-24.518 7.7486 0 0-1.8311.80393-7.3544 11.567-5.522 10.764-12.707 26.204-37.155 34.031z"/>
  <path fill="url(#b)" d="m119.82 41.848.27851-.59561c3.6911-7.9218 7.6841-16.001 14.254-21.514 6.3065-5.2913 12.81-7.0241 20.126-8.2394 9.1225-1.5153 16.157-2.42 23.439-11.499 0 0-.39051 10.17-7.4168 16.788-6.9243 6.521-15.218 6.2448-24.518 7.7486 0 0-.009.0045-.0276.01518-11.708 1.9245-18.912 7.668-26.136 17.296z"/>
  <path fill="url(#c)" d="m139.82 63.911-2.1792-16.129s-7.174 12.134-18.465 18.734c-12.75 7.4529-25.513 9.7039-39.699 12.795-16.182 3.5261-37.428 12.842-43.315 33.261 0 0 6.1088-13.334 22.781-19.038 16.672-5.7036 28.185-3.962 39.057-5.3671 4.7883-.61865 11.042-1.3439 17.612-3.7458 8.3478-3.0529 17.206-8.5929 24.208-20.511z"/>
  <path fill="url(#d)" d="M140.75 70.911s.51596 6.7174.57022 9.2741c.0465 2.197-.0294 16.154-4.8204 26.943-3.7003 8.3335-10.393 15.571-19.388 18.058-3.1266.86441-6.5696 1.3799-10.398 1.3886-3.8282.008-11.685-.27976-24.204-5.8578-12.519-5.5772-19.171-9.7771-30.587-7.5263-11.417 2.2512-16.716 15.319-16.646 26h-4.6859s-.51372-14.877 6.9534-25.36c7.4668-10.485 17.918-12.791 33.842-11.868 15.924.92415 30.029 1.6176 41.21-1.9767s19.283-9.4284 28.153-29.076z"/>
  <path fill="url(#e)" d="M140.75 70.911s.51596 6.7174.57022 9.2741c.0465 2.197-.0294 16.154-4.8204 26.943-2.6876 6.0521-6.9526 11.525-12.532 15.021-3.7342-6.6433-8.8632-16.651-11.617-22.085.0821-.0259.16402-.0508.24616-.07765 11.181-3.5943 19.283-9.4284 28.152-29.076z"/>
  <path fill="#006c88" d="M136.5 210.54c0-4.098-1.7381-6.1618-4.714-6.1618-2.9681 0-4.7082 2.0637-4.7082 6.1618 0 4.0961 1.7401 6.1579 4.7082 6.1579 2.9759 0 4.714-2.0618 4.714-6.1579m4.0843 0c0 5.538-3.1427 9.4575-8.7984 9.4575-5.6458 0-8.7905-3.9195-8.7905-9.4575s3.1446-9.4555 8.7905-9.4555c5.6557 0 8.7984 3.9176 8.7984 9.4555m-24.094 9.122h3.9038v-18.213h-3.9038zm39.215-18.224h3.5821v18.213h-4.9573l-7.5056-14.37v14.37h-3.6331v-18.213h5.2339l7.28 13.552zm-46.159 0h3.586v18.213h-4.9592l-7.5036-14.37v14.37h-3.6331v-18.213h5.2319l7.278 13.552zm-23.482 15.301c1.2241 0 2.2069-.31192 2.8798-1.0024.68268-.69053 1.0358-1.7106 1.0358-3.4016v-10.884h3.9058v11.127c0 2.6797-.58263 4.1216-1.8421 5.3869-1.3575 1.3634-3.4114 2.052-5.9793 2.052-2.5738 0-4.6297-.68856-5.9833-2.052-1.2614-1.2653-1.8421-2.7072-1.8421-5.3869v-11.127h3.9038v10.884c0 1.691.35507 2.7111 1.0378 3.4016.67287.69053 1.6557 1.0024 2.8837 1.0024M65.568 213.33h9.5458c.02943-.2766.04512-.55321.04512-.87101 0-4.4394-2.4267-6.7189-5.4614-6.7189-3.4664 0-5.6733 2.5816-5.6733 7.1328 0 4.5473 2.0971 7.1466 6.0343 7.1466 1.7302 0 3.1976-.47278 4.5453-1.3654l-.56498-1.0652c-1.179.70034-2.3698 1.0829-3.8116 1.0829-3.1486 0-4.5473-1.948-4.6591-5.3418m8.1039-1.2555h-8.0862c.19421-3.1839 1.5968-5.0142 4.0882-5.0142 1.1162 0 2.0147.38254 2.6797 1.0829.81608.86905 1.2614 2.2011 1.3183 3.9313m-13.342-.70622c0-1.5125-.35115-2.5502-1.077-3.2643-.62383-.61795-1.5301-.97106-2.7288-.97106-1.1967 0-2.103.35311-2.7346.97106-.72192.71406-1.0731 1.7518-1.0731 3.2643v8.2922h-1.5341v-18.213h1.4752v6.2834c.74742-1.1555 2.1657-2.0029 3.9823-2.0029 1.5341 0 2.919.51986 3.8862 1.5203.8612.88867 1.3359 2.0559 1.3359 3.9293v8.4825h-1.5321v-8.2922m-12.575 8.2981c-1.2104 0-2.0657-.28837-2.6483-.89847-.58459-.61402-.84747-1.3183-.84747-2.6385v-8.8592h-1.6243v-1.181h1.6243v-2.9504h1.536v2.9504h2.9524v1.181h-2.9524v8.6061c0 1.0181.16086 1.6106.50612 2.001.35311.39431.88474.55125 1.8126.55125h.82v1.2378h-1.179M128.56 167.72h31.825c.0902-.92005.14125-1.9578.14125-3.0211 0-14.552-8.096-22.207-18.122-22.207-11.525 0-18.876 8.5904-18.876 23.711 0 15.101 6.9779 23.743 20.049 23.743 5.7459 0 10.623-1.5674 15.119-4.5414l-1.8832-3.4271c-3.9176 2.3246-7.8724 3.5958-12.677 3.5958-10.48 0-15.194-6.5698-15.576-17.854m27.14-4.0058h-27.091c.61991-10.701 5.3594-16.938 13.689-16.938 7.533 0 13.128 5.7812 13.403 16.938m-94.153-16.808c-3.3702 0-6.9779 1.0024-9.2986 3.2918-2.715 2.6797-3.5429 6.0009-3.5429 10.95v28.231h-4.8925v-29.069c0-5.5085 1.1947-9.8439 4.5492-13.136 3.2839-3.2192 8.1255-4.6728 13.185-4.6728 5.0652 0 9.9067 1.4536 13.195 4.6728 3.3546 3.2918 4.5492 7.6272 4.5492 13.136v29.069h-4.8984v-28.231c0-4.9494-.82392-8.2706-3.537-10.95-2.3207-2.2893-5.9264-3.2918-9.3084-3.2918m-43.805 38.626c3.3781 0 6.9857-1.0044 9.3045-3.2937 2.715-2.6778 3.5409-5.999 3.5409-10.95v-28.229h4.8984v29.071c0 5.5046-1.1947 9.8381-4.5571 13.13-3.28 3.2212-8.1216 4.6748-13.187 4.6748-5.0632 0-9.9028-1.4536-13.187-4.6748-3.3565-3.2918-4.5551-7.6252-4.5551-13.13v-29.071h4.8984v28.229c0 4.9514.82785 8.2726 3.5429 10.95 2.3207 2.2893 5.9283 3.2937 9.3006 3.2937m70.661 3.8254h4.8984v-46.307h-4.8984zm28.367-.00005c-3.6468 0-6.56-.74938-8.561-2.8308-1.946-2.0284-2.8072-4.4531-2.8072-8.8513v-30.891h-5.4046v-3.7312h5.4046v-9.8008h4.9043v9.8008h9.8126v3.7312h-9.8126v30.114c0 3.3879.53359 5.3477 1.6792 6.6424 1.1672 1.3104 2.868 1.897 6.0206 1.897h2.5306v3.9195h-3.7665"/>
</svg>
