<?xml version="1.0" encoding="UTF-8"?>
<svg id="Layer_1" xmlns="http://www.w3.org/2000/svg" xmlns:xlink="http://www.w3.org/1999/xlink" version="1.1" viewBox="0 0 800 800">
  <!-- Generator: Adobe Illustrator 30.0.0, SVG Export Plug-In . SVG Version: 2.1.1 Build 123)  -->
  <defs>
    <style>
      .st0 {
        fill: none;
      }

      .st1, .st2 {
        fill-rule: evenodd;
      }

      .st1, .st3 {
        fill: #f2e5bb;
      }

      .st4 {
        fill: #aaa085;
      }

      .st4, .st2 {
        display: none;
      }

      .st5 {
        fill: #f4ebd4;
      }

      .st2 {
        fill: #00f42e;
      }

      .st6 {
        fill: #0e325d;
      }

      .st7 {
        fill: #3463c1;
      }

      .st8 {
        fill: #a59771;
      }

      .st9 {
        clip-path: url(#clippath);
      }
    </style>
    <clipPath id="clippath">
      <ellipse class="st0" cx="398.1" cy="354.5" rx="205.6" ry="199.8"/>
    </clipPath>
  </defs>
  <rect class="st5" width="802.4" height="800" rx="30.4" ry="30.4"/>
  <g>
    <path class="st4" d="M620.3,527.6c-24.2,53.6-179.4,198.7-221,198.7v-.6c-41.6,0-196.8-145.1-221-198.7,1.6-3.4,75.5-11.5,107.2-29.6,23.9-13.6,58.5-49.5,76-71.4.1-.2.2-.3.4-.5,19-23.9,55.3-23.7,74.4.1.3.3.5.6.7.9,17.4,22,52.1,57.8,76,71.5,31.7,18.1,105.7,26.2,107.2,29.6h0Z"/>
    <path class="st8" d="M620,530.5c-.4.7-1,1.2-1.7,1.4-29.9,56.6-178.4,194.5-218.9,194.5v-.6c-40.5,0-189-137.8-218.9-194.5-.7-.2-1.3-.7-1.7-1.4-68.1-115.4-49.2-232.2-50.5-361.8,0-2.2.7-5.7-.6-7.7-.7-1-.7-2.3,0-3.3.5-.7,1-1.2,1.6-1.9.4-.4,1.2-.8,1.6-1,127-9.5,171.2-80.1,269.2-80.1s140.8,71.3,267.8,80.7c.4.2,1.2.6,1.6,1h0c1.5,1.6,2,3.9,1.2,5.9-.8,2.1-.2,5.1-.3,7.1-1.4,129.5,17.5,246.4-50.5,361.8h0Z"/>
  </g>
  <g>
    <g class="st9">
      <g>
        <ellipse class="st3" cx="398.1" cy="352.8" rx="205.6" ry="199.8"/>
        <g>
          <rect class="st7" x="203.9" y="359.6" width="98.2" height="268.6"/>
          <rect class="st7" x="300.6" y="299" width="98.2" height="329.2"/>
          <rect class="st7" x="397.3" y="208.8" width="98.2" height="419.5"/>
          <rect class="st7" x="494" y="280.5" width="98.2" height="347.8"/>
        </g>
      </g>
    </g>
    <path class="st6" d="M580.4,526.7c21.9,31.2,49.5,60.7,73.6,89.6,13.3,16-2.8,35.2-14.1,47-15.5,16.1-43.7,40.4-64.4,19.2l-93-111.1c-13.4.6-25.7,6.9-39,9.4-165.3,30.4-305.1-113.2-267.8-277.9,36.8-162.6,226.6-229.8,360.8-132.5,110.8,80.3,124.6,238.9,33.4,339.6-.2,1,9,14.6,10.6,16.9v-.2ZM375.5,163.7c-132.3,11.7-205.9,165.4-145.2,280.8,75,142.7,296.5,126.4,350-25.4,48.9-138.7-62.4-268-204.8-255.4h0Z"/>
    <path class="st2" d="M301,392c-7.4-7.6-19.5-7.6-26.9,0s-7.4,19.8,0,27.4l88.7,90.3c7.4,7.6,19.5,7.6,26.9,0l164.8-167.6c7.4-7.6,7.4-19.8,0-27.3-7.4-7.6-19.5-7.6-26.9,0l-151.3,153.9-75.3-76.6h0Z"/>
    <path class="st1" d="M301,392c-7.4-7.6-19.5-7.6-26.9,0s-7.4,19.8,0,27.4l88.7,90.3c7.4,7.6,19.5,7.6,26.9,0l164.8-167.6c7.4-7.6,7.4-19.8,0-27.3-7.4-7.6-19.5-7.6-26.9,0l-151.3,153.9-75.3-76.6h0Z"/>
  </g>
</svg>