<svg xmlns="http://www.w3.org/2000/svg" id="Layer_1" viewBox="0 0 300 300"><defs><style>.st0{fill:#028d8e}</style></defs><path d="M150.3 3.1c64.7-.8 126.5 45.4 142 108.5 23.4 88.7-41.5 180.6-133.6 185.9C37 305.3-40.5 165.5 28.9 65.8 56 26.7 102.7 2.8 150.1 3.1zm-9.8 54C92.6 62 54.1 106 56.9 154.4c1.3 42 33.6 80.6 75.2 87.7 24.3 4.6 50.2-1.2 70.4-15.4 36.6-24.6 52.5-75.1 34.3-115.5C221.3 74.3 180.1 52 140.6 57h-.2Z" class="st0"/><path d="M142.1 68.7c74.9-7.9 119.1 84.9 66.3 138.6-14.2 14.8-33.6 23.1-53.7 24.1-33.8 2-67.4-18-80-50.3C54 132.4 88.2 73 142 68.7h.2Zm16.7 15.8c-.1-.3-.4-.4-.6-.3h-15.3c-1.1-.2-2 .9-.9 1.9.5.4 1.2.7 1.8 1 1 .4 1.9 1 2.6 1.9 1.4 1.8.7 3.5-1.6 2.5-1.8-.6-2.2-3.7-4.1-4-1 0-1.5.5-1.5 1.4v11.7c0 .4 0 .7.4 1 1.1 1.1 1.9.1 2.7-.9s2.1-2.2 3.3-2.9c1.6-.9 2.1.4 1.4 1.7-.8 1.7-2.4 2.4-3.7 3.6-.6.6-.4 1.3.2 1.8 1 .8 1.2 1.6.5 2.6-1.2 1.7-2.6 4.9-1.4 7.6q.45 1.2 1.2 2.1c1.4 1.8 3.3 1.9 3.5 3.9 0 1.6 0 3.4.9 4.8.6 1.1.2 2.5-1.1 2.6-.8 0-2-1.2-3-2.1-.3-.3-.5-.6-.7-.9-.6-1.4 0-3.5-.6-4.9-.7-1.8-2.4-2.5-4.4-1.9-.7.2-1.4.4-2 0s-.9-1.2-1.3-1.7c-1.2-1.8-4.1-2.5-5.5-1.2-1.2 1.2-1.6 1.6-2.4-.3-1.2-3.3-5-4-6.7-1.1-.3.5-.5 1-.8 1.4-.5.9-1.3 1.1-1.9.2-.4-.5-.6-1.1-.9-1.6-1.6-3-5.1-2.5-6.5.3-.2.5-.5 1-.7 1.5-.7 1.3-1.8.4-2.7-.2-1.8-1.1-4.7-1.1-5.6.9-.5.9-.9 1.8-.9 2.8 0 .4 0 1-.4 1.3-1 .7-2.6 0-3.7.4-2.5.6-3 3.2-2.1 5.5.2.6.5 1.3.2 1.8-.6 1.1-2.3.8-3.1 1.8-1.5 1.2-1.4 4.1-.4 5.4.4.6 1.2.9 1.8 1.4.7.5.6 1.1 0 1.5-.4.3-1.1.6-1.6.9-2.5 1.4-2.3 4.6 0 6.2.6.5 1.5.8 1.7 1.6.2.7-.2 1.6-.5 2.4-1.6 4.1 2.6 5.2 6.4 7.4.8.4 1.9 1.5.7 2.1-.9.4-2 .2-2.9.6-2 1-1.6 3.3-1.4 5.1.4 3.5 1.5 10.4 2.3 14.7.3 1.4.5 2.8 1.1 3.9.6 1.2 2 2.4 3.2 3.2.8.6 1.2 1.3.8 2.3-.4 1.1-1.3 3.4-1.7 4.7-.4.7-.2 2 .6 2.2 2 .3 76.9-.2 97.3 0h.2c.2 0 1.3-.6.7-2.2-.3-.9-.7-1.8-1-2.7s-.9-2-.8-2.8c0-1 1.6-1.8 2.6-2.6 1.1-1 1.8-2.4 2.1-3.7.8-3.3 2.7-15.8 2.8-19.1 0-.5 0-.9-.2-1.5-.3-.8-1-1.5-2-1.7-.7-.2-2-.3-1.9-1.3 0-.9 1-1.8 1.6-2.4 1-.8 2.4-.6 3.6-1.3 2-1.2 2.1-4.1 1.1-6-.8-1.5.6-2.2 1.6-2.9 2.3-1.5 2.5-4.7 0-6.2-2.9-1.4-3-2.1-.2-3.7 2.5-1.6 1.5-5.1-1.3-6.2-3.5-1.1-1.9-1.8-1-4.1.4-3.7-2-5.2-5.5-4-1 .3-2.2.2-2-1.1.2-1.4.6-3-.4-4.2-.8-1.1-2.6-1.4-3.7-1.1-1 .2-1.7 1.1-2.6 1.7-2.8 1.7-1.1-4.6-6.3-4.6-3.5-.2-2.5 2.5-3.8 4.4-.9.8-1.7-.3-2-1.3-.3-.8-.8-1.7-1.6-2.3-1.7-1.3-4-.5-5.2 1.3-.4.5-.9 1.2-1.5 1.2-1.2 0-2.3-1.1-3.5-.9-2.2 0-3.1 1.7-3.8 3.4-.6 1.3-2.1.7-3.2.4-3.8-.8-4.5 2.7-4.4 6.1 0 .7-.4 1.2-.9 1.7-.9.8-2.1 2-2.9 2.1-.6 0-1.1-.3-1.3-.8-.6-1.3 1.1-2.8 1.1-4.1.1-.9-.2-1.9-.1-2.8 0-1 .7-1.4 1.5-1.9 1.2-.7 2.3-1.9 2.9-3.2 1.4-3.1.1-5.9-1-7.7-.5-.7-.8-1.6 0-2.2.4-.3.9-.5 1.3-.8 2-1.1-3.2-2.8-4.9-6.1-.2-.4-.5-1-.5-1.4 0-.3.5 0 1.2.5.8.6 1.8 1.4 2.7 2.1 1.7 1.3 2.3 2 3.4 1.6.7-.2 1.3-.9 1.3-1.7v-7.7c0-1.6.2-3.5-.2-4.7-.4-.6-1.3-.7-2-.4-1.4.7-1.7 3-3.3 3.9-1.1.8-2.6.2-2.3-1.3.3-1.3 1.3-2 2.4-2.6 1.3-.9 3.4-1.1 3.3-2.9Z" class="st0"/><path d="M141.4 131.3c.5 1.4-.3 24.5.4 24.6h17.4v-24.5c9.4-3.8 22.2-10.5 31.8-6 12.3 6.5 11.4 20.9 6 31.6-.3.9-.8 1.5-1.6 2-.4.3-.8.6-.9 1.1-.1.6 0 1.4.5 1.8 1 .9 4.7 2.5 4.6 5.5 0 .7-.1 1.5-1 .9-.9-.4-1.9-1.1-2.7-1.8-2-1.6-1.2-6.1-4-5.8q-.3 0-.3.3c-.2 2-1.8 16.9-1.9 18.3-.2.3-.6.2-1.1.3-5.8.7-12.7-3.1-8-8.2.6-.8 2-1.2 2.2 0 .3 1.3-.3 3.5-.7 4.5 0 .4.2.5.7.5 7.9-.5 6.5-14.6-1.9-11.2-.7.2-.8 0-.7-.6 2.3-6.4 3.4-11.8-1-17.6-.4-.6-1.1-1-1.8-.5-6.1 3.9-5.6 11.9-3.8 18.2.2.7 0 .7-.6.3-8.4-6.3-12.1 10.7-3.2 9.9.6-1.1 0-4 .3-4.9.2-.5 1.4-.3 2 .2 6.2 10.1-17.8 11.7-18.7 2.4.3-2.5 3.9.5 4.4 1.6 1 1.3 2.1 2.4 3.8 2.3.2 0 .5 0 .5-.2V160c-.2-.4-1.4.2-2 .7-2 1.7-2.8 5-5.9 5-1.1 0-1.1-1.3-.8-2.2 1-2.8 5.3-3.4 5.6-6.5 0-.1 0-.1-.1-.2h-17.3c-.3 0 0 .5 0 .8.9 2.9 5.5 3.5 5.7 6.9 0 1.2-1.1 1.3-2.1 1-1.2-.4-2.1-1.3-2.9-2.4-.8-.8-1.3-3.1-2.7-2.8-.4.2-1 .7-1.1 1.1v14.8c0 .2 0 .3.3.3 2.5.4 3.8-2.5 5.4-3.9.8-.7 3.2-1.7 3.1 0 0 8-19.5 8.2-20.1.3-.1-1.3 1-2.6 2.6-3.1.3 0 .6-.2.7 0 .2.7 0 3.9.1 4.7.2.3.4.3.9.3 7.9-.5 4.1-15.6-3.6-10.3-.2.1-1.4 1.2-1 0 1.8-6.2 2.4-15.7-4.7-18.4-5.8 5.2-4.3 11.7-1.9 18.2.2.4.2.8-.3.7-1.4-.5-3.1-.8-4.2-.4-5.1 1.9-4.1 11.3 1.7 11.6.8 0 1.3 0 1.3-1.1 0-1 .2-2.6.3-3.6 0-1.1.3-1 .8-.3 5.2 5.9-4.6 9.6-9.1 7.8-.3-1.8-1.6-16.8-2.1-18.4-.3-.2-1.3 0-1.7.5-.6.7-.7 1.5-1 2.4-.4 2.4-2.6 4-4.6 4.8h-.3c-.4-.5-.2-2.3.4-3 1.1-2.4 6.2-4.3 3.8-6.4-.7-.4-1.3-1-1.6-1.9-4.2-9.2-6.5-18.8.2-27.1 9.6-12.2 25.8-3.1 37.3 1.2ZM131.2 188.3c-.8.3-2 0-3.6.2-2.4 0-10.1 1-10.1-2.4.7-2.9 7.7-1.3 11.1-2.1 1.7-.6 1.7.6 2.2 2.1.2.9.5 1.4.4 2.1ZM168.9 188.2c-.3-.7.7-2.9.9-3.7.3-.8 1-.9 1.9-.8 1.3 0 2.4.2 3.6.3 8.6.7 11.1 4.3-1.4 4.6-1.7 0-3.6.1-5-.3ZM149.7 181.5c4.7-.2 5.2 8 0 7.7-3.4-.4-4.5-7-.2-7.7zM109.7 180.4c-1.2 1.2-8-3.5-8-6.1 0-.7.7-.8 1.3-.6 3.1.8 5.7 3.6 6.7 6.6ZM199.2 173.8v.5c-1.6 3-4.5 5.4-7.9 6.1-.2 0-.7.1-.8 0v-.4c.3-.7 1-1.5 1.5-2.2 1.6-2.2 4.3-4.6 7.2-4" class="st0"/></svg>