<?xml version="1.0" encoding="UTF-8"?>
<svg id="Layer_1" xmlns="http://www.w3.org/2000/svg" xmlns:xlink="http://www.w3.org/1999/xlink" version="1.1" viewBox="0 0 800 800">
  <!-- Generator: Adobe Illustrator 30.0.0, SVG Export Plug-In . SVG Version: 2.1.1 Build 123)  -->
  <defs>
    <style>
      .st0 {
        fill: none;
      }

      .st1, .st2 {
        fill-rule: evenodd;
      }

      .st1, .st3 {
        fill: #f2e5bb;
      }

      .st4 {
        fill: #b5a271;
      }

      .st5 {
        fill: #f4ebd4;
      }

      .st2 {
        display: none;
        fill: #00f42e;
      }

      .st6 {
        fill: #0e325d;
      }

      .st7 {
        fill: #473e28;
      }

      .st8 {
        fill: #3463c1;
      }

      .st9 {
        clip-path: url(#clippath);
      }
    </style>
    <clipPath id="clippath">
      <ellipse class="st0" cx="398.2" cy="358.6" rx="187.4" ry="182.1"/>
    </clipPath>
  </defs>
  <rect class="st5" x="-16.5" y="-16.5" width="835.4" height="833" rx="30.4" ry="30.4"/>
  <g>
    <path class="st7" d="M600.7,516.3c-22.1,48.9-163.5,181.1-201.4,181.1v-.5c-37.9,0-179.4-132.2-201.4-181.1,1.5-3.1,68.8-10.5,97.7-27,21.8-12.4,53.3-45.1,69.3-65.1,0-.2.2-.3.4-.5,17.3-21.8,50.4-21.6,67.8,0,.3.3.5.5.6.8,15.9,20.1,47.5,52.7,69.3,65.2,28.9,16.5,96.3,23.9,97.7,27h0Z"/>
    <path class="st4" d="M600.4,519c-.4.6-.9,1.1-1.5,1.3-27.3,51.6-162.6,177.3-199.5,177.3v-.5c-36.9,0-172.3-125.6-199.5-177.3-.6-.2-1.2-.6-1.5-1.3-62.1-105.2-44.8-211.6-46-329.7,0-2,.6-5.2-.5-7-.6-.9-.6-2.1,0-3,.5-.6.9-1.1,1.5-1.7.4-.4,1.1-.7,1.5-.9,115.7-8.7,156-73,245.3-73s128.3,65,244.1,73.5c.4.2,1.1.5,1.5.9h0c1.4,1.5,1.8,3.6,1.1,5.4-.7,1.9-.2,4.6-.3,6.5-1.3,118,15.9,224.6-46,329.7h0Z"/>
  </g>
  <g>
    <g class="st9">
      <g>
        <ellipse class="st3" cx="398.2" cy="357" rx="187.4" ry="182.1"/>
        <g>
          <rect class="st8" x="221.2" y="363.2" width="89.5" height="244.8"/>
          <rect class="st8" x="309.3" y="308" width="89.5" height="300"/>
          <rect class="st8" x="397.5" y="225.8" width="89.5" height="382.3"/>
          <rect class="st8" x="485.6" y="291.1" width="89.5" height="317"/>
        </g>
      </g>
    </g>
    <path class="st6" d="M564.4,515.5c20,28.4,45.1,55.3,67.1,81.7,12.1,14.6-2.6,32.1-12.9,42.8-14.1,14.7-39.8,36.8-58.7,17.5l-84.8-101.3c-12.2.5-23.4,6.3-35.5,8.6-150.7,27.7-278.1-103.2-244.1-253.3,33.5-148.2,206.5-209.4,328.8-120.8,101,73.2,113.6,217.7,30.4,309.5-.2.9,8.2,13.3,9.7,15.4v-.2h0ZM377.6,184.7c-120.6,10.7-187.7,150.7-132.3,255.9,68.4,130.1,270.2,115.2,319-23.1,44.6-126.4-56.9-244.3-186.7-232.8h0Z"/>
    <path class="st2" d="M309.7,392.7c-6.7-6.9-17.8-6.9-24.5,0s-6.7,18,0,25l80.8,82.3c6.7,6.9,17.8,6.9,24.5,0l150.2-152.7c6.7-6.9,6.7-18,0-24.9-6.7-6.9-17.8-6.9-24.5,0l-137.9,140.3-68.6-69.8h0Z"/>
    <path class="st1" d="M309.7,392.7c-6.7-6.9-17.8-6.9-24.5,0s-6.7,18,0,25l80.8,82.3c6.7,6.9,17.8,6.9,24.5,0l150.2-152.7c6.7-6.9,6.7-18,0-24.9-6.7-6.9-17.8-6.9-24.5,0l-137.9,140.3-68.6-69.8h0Z"/>
  </g>
</svg>